<svg id="Layer_1" data-name="Layer 1" xmlns="http://www.w3.org/2000/svg" viewBox="0 0 2000 2000"><defs><style>.cls-1{fill:#c62424;}.cls-2{fill:#d37979;}.cls-3{opacity:0.38;}.cls-4{fill:#db6a6a;}</style></defs><title>Table2</title><path class="cls-1" d="M1797.81,729.63a298.06,298.06,0,0,1,14.25,36.81c12.43,39.7,13.58,72.34,14.25,86.43,0,0,.58,12.17,17.1,139.25,6.55,50.35,27.14,121.92,91.18,209.67l-1.42,17.61c-24.13,11.87-42.77,12.75-55.56,11.2-9.89-1.2-16.16-3.83-29.92-4.8a161.27,161.27,0,0,0-39.89,3.2c-26.45,5.54-248.87,128.89-548.52,307.31a116.28,116.28,0,0,1-1.42,52.82c-13.85,51.15-59.74,69.79-65.54,72a81.41,81.41,0,0,1,0,24c-7.68,50.26-64.9,88.56-115.4,91.23-72.54,3.84-117.71-66.55-121.1-72,.23-11.44-1.12-26.4-10-33.61-7.37-6-14.83-2.46-24.22-3.2-28-2.22-54.75-41.16-61.26-78.43-4.06-23.23.19-43.31,4.27-56-73.25-34.4-149.51-73.62-228-118.44a3334.33,3334.33,0,0,1-436-297.7,173.43,173.43,0,0,1-37,12.8c-30.61,6.79-64.27,14.26-84.06-8-19-21.35-16.83-60.62-5.7-84.83a75.34,75.34,0,0,1,21.37-27.21C151.88,962.31,151.19,792.9,205,628.79a836.25,836.25,0,0,1,41.32-102.44"/><path class="cls-2" d="M845,191.71,263.13,505.11C202.91,537.54,201.4,617,260.36,650.72l857.05,489.47c29.8,17,67.62,16.94,97.56-.21l552.67-316.5c57.87-33.14,58.72-110.27,1.59-143.83L941.41,193.28C912.27,176.15,875,175.55,845,191.71Z"/><g class="cls-3"><path class="cls-4" d="M1079.88,1126c-1.88,4.66-3.9,9.24-5.87,13.85s-4.07,9.16-6.2,13.69c-4.2,9.1-8.59,18.09-13.07,27-9,17.9-18.5,35.5-28.34,52.91l-7.47,13c-2.51,4.33-5.08,8.61-7.63,12.91-5.09,8.61-10.36,17.1-15.64,25.6s-10.72,16.87-16.13,25.27-11,16.66-16.53,25L946.17,1360l-16.94,24.52c-5.68,8.13-11.23,16.32-16.81,24.46l-4.13,6.13-4.07,6.15-4,6.15-3.95,6.19c-2.57,4.16-5.17,8.29-7.62,12.49-1.22,2.1-2.46,4.19-3.61,6.32l-1.76,3.18-1.71,3.19c-1.17,2.12-2.18,4.29-3.28,6.44s-2.06,4.34-3,6.53a131.51,131.51,0,0,0-5.1,13.34,95.14,95.14,0,0,0-3.37,13.77,64.53,64.53,0,0,0-.89,14.08c.09,1.17.13,2.36.32,3.52l.23,1.76.33,1.74c.19,1.18.54,2.3.83,3.46.16.57.37,1.13.55,1.7s.38,1.13.61,1.69a40.57,40.57,0,0,0,7.65,12.47,36.1,36.1,0,0,1-5.84-4.85,38.93,38.93,0,0,1-4.89-6,45.94,45.94,0,0,1-6.12-14.5,66,66,0,0,1-1.74-15.73,98.4,98.4,0,0,1,1.36-15.7,153.33,153.33,0,0,1,8.62-29.92l1.41-3.6c.48-1.19,1-2.36,1.5-3.54,1-2.37,2.07-4.69,3.13-7q3.21-7,6.72-13.74l3.56-6.73,3.64-6.66,3.75-6.58,3.81-6.53c5.08-8.69,10.43-17.18,15.76-25.66s10.85-16.8,16.29-25.16L944,1322.48l16.72-24.7,16.79-24.62,33.67-49.18q16.9-24.57,33.94-49.12l8.57-12.26,8.63-12.24Q1070.95,1138.12,1079.88,1126Z"/></g><g class="cls-3"><path class="cls-4" d="M207.59,881.75c3.1,22.37,3.49,44.87,2.68,67.29a621.06,621.06,0,0,1-6.57,66.78l-2.49,16.43-1.27,8.15-1.19,8.11a255.85,255.85,0,0,0-3,31.91c0,1.3-.08,2.63,0,3.93l.13,3.9a37.45,37.45,0,0,0,.29,3.88l.36,3.88.63,3.83.31,1.93.44,1.9.89,3.82c.34,1.27.72,2.52,1.12,3.78a76.18,76.18,0,0,0,6.37,14.6,80.9,80.9,0,0,0,9.65,13.4c-10.06-5.21-18.55-14-24.4-24.24a86.22,86.22,0,0,1-7-16.38,100.24,100.24,0,0,1-3.43-17.47c-.14-1.46-.34-2.94-.43-4.4l-.24-4.38c-.2-2.94-.08-5.81-.11-8.72s.15-5.75.28-8.63.4-5.68.59-8.53c.48-5.65,1.14-11.25,1.8-16.82s1.5-11.09,2.28-16.59c3.27-22,6.92-43.69,10.48-65.55,1.83-10.92,3.63-21.85,5.57-32.82q1.45-8.22,3-16.47C205.3,892.77,206.34,887.27,207.59,881.75Z"/></g><g class="cls-3"><path class="cls-4" d="M1118.24,1232.38c-14.37,38.08-31,75.29-48.72,111.92s-37,72.54-57,108l-15,26.52Q990,1492,982.6,1505.25c-9.86,17.68-19.53,35.42-27.86,53.66a266.06,266.06,0,0,0-11,27.86,132.93,132.93,0,0,0-6.14,29,83.84,83.84,0,0,0,2.05,29.48A61.37,61.37,0,0,0,954,1671.45a58.65,58.65,0,0,1-10.28-11.37,62.43,62.43,0,0,1-7-13.82,74.16,74.16,0,0,1-3.73-15.15,96.26,96.26,0,0,1-.93-15.6,137.45,137.45,0,0,1,4.53-30.82c1.31-5,2.8-10,4.49-14.86l1.26-3.66,1.34-3.63c.87-2.43,1.86-4.8,2.81-7.2,3.86-9.54,8.12-18.88,12.62-28.07s9.2-18.25,14-27.26,9.7-17.91,14.61-26.82l14.88-26.6c19.94-35.37,39.77-70.71,59-106.43S1099.48,1268.49,1118.24,1232.38Z"/></g><g class="cls-3"><path class="cls-4" d="M1193.39,1662.24c-.74-5.35-1.32-10.7-2-16.06s-1.16-10.71-1.65-16.08c-1-10.72-1.88-21.45-2.64-32.19-1.49-21.48-2.47-43-3.1-64.48-1.21-43-.89-86.05.54-129l1.22-32.17,1.49-32.12c1.06-21.39,2.15-42.74,2.92-64,.16-5.32.35-10.63.45-15.93q.09-4,.11-7.95c0-2.65,0-5.29,0-7.94,0-10.57-.35-21.1-1.4-31.51s-2.82-20.7-6.57-30.26a37.38,37.38,0,0,0-7.95-12.84,19.65,19.65,0,0,0-6.24-4.31,22,22,0,0,0-7.7-1.67,20.64,20.64,0,0,1,8.2.05,22.13,22.13,0,0,1,7.79,3.37,34.45,34.45,0,0,1,6.35,5.74,50.93,50.93,0,0,1,4.93,6.92,87.52,87.52,0,0,1,7.07,15.23,149.07,149.07,0,0,1,4.61,16c1.26,5.39,2.19,10.8,3.07,16.22s1.48,10.85,2,16.28c.28,2.71.57,5.43.76,8.14s.42,5.43.6,8.13c.37,5.42.68,10.84.87,16.25s.38,10.82.51,16.22.16,10.8.2,16.19c.12,10.78,0,21.55-.13,32.3s-.42,21.49-.64,32.21l-1,32.16q-2.18,64.27-5.2,128.42c-1,21.41-2.07,42.82-3.27,64.26-.63,10.72-1.23,21.44-1.95,32.17S1194.31,1651.49,1193.39,1662.24Z"/></g><g class="cls-3"><path class="cls-4" d="M1688.88,1269.12q-.27-12.48,0-24.93c.13-8.3.4-16.59.74-24.87.7-16.57,1.78-33.1,3.13-49.61,2.73-33,6.6-65.92,11.31-98.65s10.31-65.3,15.64-97.72c2.63-16.21,5.2-32.39,6.64-48.56l.15-1.52.09-1.51.17-3c.12-2,.25-4,.23-6l0-3c0-1,.06-2,0-3-.15-2-.22-4-.38-6a52.23,52.23,0,0,0-1-5.85,24.57,24.57,0,0,0-1.85-5.52,11.8,11.8,0,0,0-3.46-4.49,9.54,9.54,0,0,0-5.64-1.69,11.2,11.2,0,0,1,3.15-.34,10,10,0,0,1,3.2.76,13.89,13.89,0,0,1,5.14,4.25,27.1,27.1,0,0,1,3.3,5.72,49.7,49.7,0,0,1,2.22,6.12c2.38,8.3,3.25,16.8,3.84,25.24.88,16.88,0,33.62-1.23,50.21-2.67,33.18-7.07,66-11.74,98.63s-9.83,65.24-15.27,97.81c-2.75,16.28-5.57,32.55-8.58,48.82-1.52,8.13-3,16.27-4.66,24.4S1690.71,1261,1688.88,1269.12Z"/></g></svg>