<svg id="Layer_1" data-name="Layer 1" xmlns="http://www.w3.org/2000/svg" viewBox="0 0 2000 1712.48"><defs><style>.cls-1{fill:#26c434;}.cls-2,.cls-3{fill:#4cd34c;}.cls-3{opacity:0.38;}</style></defs><title>Table3green(7ndody)</title><path class="cls-1" d="M1902.44,873.15c-17.68-136-18.29-149-18.29-149-.71-15.08-1.95-50-15.24-92.48a318.9,318.9,0,0,0-15.24-39.39L199.06,375.51a17.33,17.33,0,0,1-1.89,3.35c-.79,1.08-1.63,2.13-2.48,3.16l-.69.83c-.09.11-1.2,1.5-.37.42a7,7,0,0,1-5.54,3.06,892,892,0,0,0-38.76,98.07C91.78,660,92.52,841.26,31.94,892A80.61,80.61,0,0,0,9.08,921.1C-2.83,947-5.14,989,15.17,1011.87c21.18,23.82,57.19,15.83,89.94,8.56a185.57,185.57,0,0,0,39.64-13.7,3567.72,3567.72,0,0,0,466.48,318.54c83.94,48,165.54,89.92,243.91,126.73-4.37,13.6-8.92,35.08-4.57,59.94,7,39.87,35.58,81.54,65.55,83.92,10,.8,18-3,25.92,3.43,9.47,7.71,10.91,23.73,10.67,36,3.63,5.86,52,81.17,129.58,77.07,54-2.86,115.26-43.84,123.48-97.62a87.1,87.1,0,0,0,0-25.69c6.21-2.39,55.31-22.33,70.12-77.07,6.37-23.54,3.94-44.41,1.52-56.52C1598,1264.52,1836,1132.54,1864.32,1126.61a172.56,172.56,0,0,1,42.68-3.42c14.72,1,21.43,3.86,32,5.14,13.69,1.66,33.64.72,59.45-12l1.52-18.84C1931.47,1003.61,1909.44,927,1902.44,873.15Z"/><path class="cls-2" d="M841.59,18.59l-618,335.16c-64,34.68-65.54,119.76-2.9,155.8l910.47,524c31.65,18.22,71.82,18.14,103.62-.2l586.93-338.49c61.45-35.44,62.34-118,1.65-153.9L944,20.29C913,2,873.47,1.3,841.59,18.59Z"/><path class="cls-3" d="M1085.47,1016.41c-36.83,65.47-73,122.73-99.69,163.57-75.27,115.17-128.13,180.86-133,233.63-2.3,24.76,6.79,37.8,15,45"/><path class="cls-3" d="M152.13,742.21c-1.44,40.35-5.07,75.25-8.2,100.06-8.82,70-19.8,108.9-6.1,143.83,6.43,16.39,16,26,23.19,31.64"/><path class="cls-3" d="M1126.51,1130.23c-30.79,69-61.83,128.95-84.9,171.58C976.56,1422,929.16,1489.48,930.06,1548c.42,27.45,11.33,43.08,20.67,52.07"/><path class="cls-3" d="M1206.92,1590.18c-2-82.62-1-158,.3-212.52,3.7-153.68,12.62-249.22-6-296.11-8.73-22-20.4-25.41-29-24.73"/><path class="cls-3" d="M1737.1,1169.54c6.35-64.05,13.85-122.56,19.65-164.86,16.34-119.29,30.57-193.58,23.44-229.57-3.34-16.89-10.19-19.28-15.55-18.58"/></svg>