<svg id="Layer_1" data-name="Layer 1" xmlns="http://www.w3.org/2000/svg" viewBox="0 0 2000 1712.48"><defs><style>.cls-1{fill:#c62424;}.cls-2{fill:#d64c4c;}.cls-3{opacity:0.38;}.cls-4{fill:#db6a6a;}</style></defs><title>Table3(7ndody)</title><path class="cls-1" d="M1902.44,873.15c-17.68-136-18.29-149-18.29-149-.71-15.08-1.95-50-15.24-92.48a318.9,318.9,0,0,0-15.24-39.39L199.06,375.51a17.33,17.33,0,0,1-1.89,3.35c-.79,1.08-1.63,2.13-2.48,3.16l-.69.83c-.09.11-1.2,1.5-.37.42a7,7,0,0,1-5.54,3.06,892,892,0,0,0-38.76,98.07C91.78,660,92.52,841.26,31.94,892A80.61,80.61,0,0,0,9.08,921.1C-2.83,947-5.14,989,15.17,1011.87c21.18,23.82,57.19,15.83,89.94,8.56a185.57,185.57,0,0,0,39.64-13.7,3567.72,3567.72,0,0,0,466.48,318.54c83.94,48,165.54,89.92,243.91,126.73-4.37,13.6-8.92,35.08-4.57,59.94,7,39.87,35.58,81.54,65.55,83.92,10,.8,18-3,25.92,3.43,9.47,7.71,10.91,23.73,10.67,36,3.63,5.86,52,81.17,129.58,77.07,54-2.86,115.26-43.84,123.48-97.62a87.1,87.1,0,0,0,0-25.69c6.21-2.39,55.31-22.33,70.12-77.07,6.37-23.54,3.94-44.41,1.52-56.52C1598,1264.52,1836,1132.54,1864.32,1126.61a172.56,172.56,0,0,1,42.68-3.42c14.72,1,21.43,3.86,32,5.14,13.69,1.66,33.64.72,59.45-12l1.52-18.84C1931.47,1003.61,1909.44,927,1902.44,873.15Z"/><path class="cls-2" d="M841.59,18.59l-618,335.16c-64,34.68-65.54,119.76-2.9,155.8l910.47,524c31.65,18.22,71.82,18.14,103.62-.2l586.93-338.49c61.45-35.44,62.34-118,1.65-153.9L944,20.29C913,2,873.47,1.3,841.59,18.59Z"/><g class="cls-3"><path class="cls-4" d="M1085.47,1016.41c-4.05,10-8.4,19.75-12.92,29.47s-9.19,19.36-14,28.94c-9.6,19.15-19.79,38-30.33,56.62l-8,13.92c-2.68,4.63-5.44,9.22-8.17,13.82-5.45,9.21-11.09,18.3-16.73,27.39s-11.47,18.06-17.26,27-11.78,17.83-17.69,26.72l-18,26.44L924.27,1293c-6.07,8.7-12,17.46-18,26.17l-4.42,6.56-4.36,6.58-4.33,6.59-4.22,6.63c-2.74,4.45-5.53,8.87-8.15,13.36-1.31,2.25-2.63,4.49-3.86,6.76l-1.89,3.4-1.82,3.42c-1.25,2.27-2.33,4.59-3.51,6.89l-1.62,3.49c-.54,1.16-1.09,2.33-1.59,3.5a140.71,140.71,0,0,0-5.46,14.27,101.81,101.81,0,0,0-3.61,14.74,69,69,0,0,0-1,15.06c.1,1.25.14,2.52.34,3.76l.25,1.88.36,1.86c.2,1.26.58,2.46.89,3.7.17.61.39,1.21.59,1.82s.41,1.21.65,1.8a44.21,44.21,0,0,0,8.19,13.34A40.93,40.93,0,0,1,856.28,1447a49.23,49.23,0,0,1-6.54-15.51,70.64,70.64,0,0,1-1.87-16.83,105.29,105.29,0,0,1,1.45-16.8,164.06,164.06,0,0,1,9.22-32l1.51-3.85c.51-1.28,1.07-2.53,1.61-3.79,1.07-2.54,2.22-5,3.35-7.51q3.43-7.46,7.19-14.7l3.81-7.2,3.89-7.13,4-7,4.08-7c5.44-9.3,11.17-18.38,16.86-27.46s11.61-18,17.43-26.92l17.74-26.6,17.89-26.43,18-26.34,36-52.62q18.08-26.29,36.32-52.56l9.17-13.12,9.23-13.1C1072.85,1033.75,1079,1025,1085.47,1016.41Z"/></g><g class="cls-3"><path class="cls-4" d="M152.13,742.21c.88,6,1.5,12,2,18s.79,12,1,18c.41,12,.33,24-.12,36a664.53,664.53,0,0,1-7,71.46l-2.66,17.58c-.45,2.91-.94,5.83-1.36,8.72l-1.28,8.68c-.39,2.87-.84,5.76-1.18,8.63-.17,1.43-.31,2.86-.5,4.29s-.38,2.86-.49,4.28c-.24,2.83-.6,5.7-.7,8.51l-.28,4.24c-.08,1.41-.05,2.8-.08,4.2s-.08,2.82,0,4.2l.14,4.17c0,.69,0,1.4.1,2.09l.21,2.06.39,4.15.68,4.1.34,2.07.48,2,1,4.09c.36,1.35.77,2.7,1.2,4a81.51,81.51,0,0,0,6.82,15.62A86.57,86.57,0,0,0,161,1017.75c-10.77-5.57-19.84-14.94-26.11-25.93a92.25,92.25,0,0,1-7.5-17.52,107.25,107.25,0,0,1-3.67-18.69c-.15-1.57-.36-3.15-.46-4.71L123,946.2c-.09-1.57-.14-3.13-.12-4.68v-4.65c0-3.11.16-6.15.3-9.23s.42-6.08.63-9.13c.52-6,1.22-12,1.93-18s1.61-11.86,2.44-17.75c3.5-23.54,7.4-46.75,11.22-70.14,2-11.68,3.88-23.38,6-35.11q1.55-8.8,3.19-17.62C149.68,754,150.79,748.12,152.13,742.21Z"/></g><g class="cls-3"><path class="cls-4" d="M1126.51,1130.23c-15.38,40.74-33.14,80.56-52.13,119.76s-39.63,77.62-61,115.51l-16,28.37q-8.07,14.14-16,28.33c-10.55,18.91-20.9,37.9-29.81,57.42a284.68,284.68,0,0,0-11.74,29.81,142.24,142.24,0,0,0-6.57,31.07,89.71,89.71,0,0,0,2.2,31.54,65.67,65.67,0,0,0,15.27,28,62.75,62.75,0,0,1-11-12.17,66.8,66.8,0,0,1-7.53-14.79,79.36,79.36,0,0,1-4-16.21,103,103,0,0,1-1-16.69,147.07,147.07,0,0,1,4.85-33c1.4-5.37,3-10.68,4.8-15.9l1.35-3.92,1.44-3.88c.93-2.6,2-5.14,3-7.7,4.13-10.21,8.69-20.2,13.5-30s9.84-19.53,14.95-29.17,10.38-19.16,15.63-28.69l15.92-28.46c21.34-37.84,42.55-75.66,63.12-113.87S1106.44,1168.87,1126.51,1130.23Z"/></g><g class="cls-3"><path class="cls-4" d="M1206.92,1590.18c-.79-5.72-1.42-11.45-2.11-17.18s-1.24-11.46-1.76-17.2c-1.1-11.47-2-23-2.82-34.45-1.6-23-2.64-46-3.32-69-1.3-46-1-92.07.58-138l1.3-34.43,1.59-34.37c1.14-22.89,2.3-45.73,3.13-68.49.17-5.69.38-11.37.48-17q.1-4.26.12-8.51c0-2.84,0-5.66,0-8.49,0-11.31-.38-22.58-1.49-33.71s-3-22.15-7-32.38a53.93,53.93,0,0,0-3.57-7.34,33.58,33.58,0,0,0-4.93-6.39,21,21,0,0,0-6.68-4.61,23.58,23.58,0,0,0-8.23-1.78,22.08,22.08,0,0,1,8.78.06,23.68,23.68,0,0,1,8.33,3.61,36.86,36.86,0,0,1,6.8,6.15,54.5,54.5,0,0,1,5.27,7.41,93.64,93.64,0,0,1,7.56,16.3,159.5,159.5,0,0,1,4.93,17.11l1,4.33c.3,1.44.56,2.89.84,4.34.58,2.9,1,5.79,1.5,8.69.88,5.8,1.58,11.61,2.18,17.42.3,2.9.61,5.81.81,8.71s.45,5.81.64,8.7c.39,5.8.72,11.6.93,17.39s.41,11.58.54,17.35.17,11.55.22,17.32c.13,11.54,0,23.05-.14,34.56s-.45,23-.69,34.47l-1,34.41q-2.33,68.77-5.57,137.41c-1.09,22.9-2.22,45.82-3.5,68.75-.68,11.47-1.32,22.94-2.08,34.42S1207.91,1578.68,1206.92,1590.18Z"/></g><g class="cls-3"><path class="cls-4" d="M1737.1,1169.54c-.13-4.45-.11-8.9-.16-13.34s0-8.89.12-13.33c.14-8.88.42-17.75.79-26.61.74-17.73,1.91-35.42,3.35-53.08,2.92-35.32,7.07-70.53,12.1-105.56s11-69.87,16.73-104.56c2.82-17.34,5.56-34.66,7.1-52l.16-1.63.09-1.61.18-3.23.18-3.24c.08-1.09,0-2.14.06-3.22l0-3.23c0-1.07.06-2.17,0-3.22-.16-2.12-.24-4.27-.41-6.4a55.9,55.9,0,0,0-1-6.26,26.3,26.3,0,0,0-2-5.9,12.63,12.63,0,0,0-3.71-4.8,10.21,10.21,0,0,0-6-1.81,12,12,0,0,1,3.37-.37,10.65,10.65,0,0,1,3.43.82,14.87,14.87,0,0,1,5.5,4.55,29,29,0,0,1,3.53,6.12,53.2,53.2,0,0,1,2.37,6.54c2.55,8.88,3.48,18,4.1,27,.94,18.06,0,36-1.32,53.72-2.86,35.51-7.56,70.57-12.56,105.53s-10.52,69.81-16.33,104.66c-2.95,17.42-6,34.83-9.18,52.24-1.63,8.7-3.25,17.41-5,26.1S1739.05,1160.85,1737.1,1169.54Z"/></g></svg>