<svg id="Layer_1" data-name="Layer 1" xmlns="http://www.w3.org/2000/svg" viewBox="0 0 1993.86 1878.87"><defs><style>.cls-1{fill:#f7c899;}.cls-2{fill:#d9b087;}.cls-3{fill:#424c71;}.cls-4{fill:#3b220e;}.cls-5{fill:#fff;}.cls-6{fill:#222b4a;}.cls-7{fill:#26c434;}.cls-8,.cls-9{fill:#4cd34c;}.cls-9{opacity:0.38;}</style></defs><title>1Player</title><path class="cls-1" d="M457.67,283.18c0,12.12,14.45,11.86,32.27,11.86h0c17.82,0,32.27.26,32.27-11.86V194.91c0-12.12-14.44-21.95-32.27-21.95h0c-17.82,0-32.27,9.83-32.27,21.95Z"/><path class="cls-2" d="M522.2,269.53c-2.28.06-4.57.1-6.87.1a252.56,252.56,0,0,1-57.66-6.45V194.91c0-12.12,14.45-21.95,32.27-21.95s32.27,9.83,32.27,21.95Z"/><path class="cls-1" d="M355.85,149.69h0A396,396,0,0,0,368.22,78c1.69-23.73,22.34-58.83,121.72-58.83S610.9,54.29,611.65,78c.92,28.79,12.36,71.68,12.36,71.68h0c5.38,11.21,8.63,21.63,9.23,30.06,3.07,43.55-61,80.26-143.31,80.26s-146.38-36.7-143.31-80.26C347.22,171.32,350.47,160.9,355.85,149.69Z"/><path class="cls-3" d="M569.86,538.62l14.56-246.11c.48-7.61-6.05-13.84-14.6-13.84H387.15c-8.55,0-15.08,6.22-14.6,13.84L376,538.62Z"/><path id="_Path_" data-name="&lt;Path&gt;" class="cls-4" d="M355.85,79.64c9.17-29.55,36.77-52.5,71.94-65.89,55-21,147.85-22.43,175.86,27.63,54.95,14.7,26.7,81.13-28.11,65.93l-1.94-.55c-28.24,10.63-68,14.13-102.92,14.58-13,24.4-39.56,45.37-78.15,33.38C355.46,143.21,347.54,106.42,355.85,79.64Z"/><path class="cls-3" d="M562.78,550.9l25-245.27c.81-7.59-5.46-14.08-14-14.45l-182.51-7.78c-8.54-.36-15.33,5.58-15.17,13.2l-7,246Z"/><polygon class="cls-5" points="502.6 370.49 450.98 286.95 535.06 290.54 502.6 370.49"/><polygon class="cls-6" points="450.98 286.95 429.06 306.65 458.37 319.68 444.77 360.63 502.03 383.71 502.6 370.49 450.98 286.95"/><polygon class="cls-6" points="535.07 290.54 555.24 312.03 524.92 322.51 534.99 364.48 502.03 383.71 502.6 370.49 535.07 290.54"/><polygon class="cls-6" points="386.67 449.4 469.16 464.05 474.01 449.61 391.52 434.96 386.67 449.4"/><polygon class="cls-6" points="530.57 464.12 569.1 462.05 566.64 447.16 528.12 449.24 530.57 464.12"/><path class="cls-7" d="M1896.6,1030.14c-17.62-136-18.24-149-18.24-149-.71-15.08-1.94-50-15.2-92.48a319.49,319.49,0,0,0-15.2-39.39L198.45,532.5a17.34,17.34,0,0,1-1.89,3.35c-.79,1.08-1.62,2.13-2.47,3.16l-.69.83c-.09.11-1.2,1.5-.37.42a6.93,6.93,0,0,1-5.53,3.06,893.66,893.66,0,0,0-38.64,98.07C91.5,817,92.23,998.24,31.85,1049A80.56,80.56,0,0,0,9,1078.09C-2.82,1104-5.12,1146,15.13,1168.86c21.11,23.82,57,15.83,89.67,8.56a184.63,184.63,0,0,0,39.51-13.7,3556.34,3556.34,0,0,0,465,318.54c83.68,48,165,89.92,243.16,126.73-4.36,13.6-8.89,35.08-4.56,59.94,6.94,39.87,35.47,81.54,65.35,83.92,10,.8,18-3,25.84,3.43,9.44,7.71,10.88,23.73,10.64,36,3.62,5.86,51.8,81.17,129.18,77.07,53.87-2.86,114.9-43.84,123.1-97.62a87.37,87.37,0,0,0,0-25.69c6.19-2.39,55.14-22.33,69.91-77.07,6.35-23.54,3.92-44.41,1.52-56.52,319.63-190.91,556.9-322.89,585.11-328.82a171.51,171.51,0,0,1,42.55-3.42c14.68,1,21.37,3.86,31.91,5.14,13.65,1.66,33.53.72,59.27-12l1.52-18.84C1925.54,1160.59,1903.58,1084,1896.6,1030.14Z"/><path class="cls-8" d="M835.45,175.57l-618,335.16c-64,34.68-65.54,119.76-2.9,155.8l910.47,524c31.65,18.22,71.82,18.14,103.62-.2l586.93-338.49c61.45-35.44,62.34-118,1.65-153.9L937.83,177.28C906.86,158.95,867.33,158.29,835.45,175.57Z"/><path class="cls-9" d="M1079.33,1173.4c-36.83,65.47-73,122.73-99.69,163.57-75.27,115.17-128.13,180.86-133,233.63-2.3,24.76,6.79,37.8,15,45"/><path class="cls-9" d="M146,899.2c-1.44,40.35-5.07,75.25-8.2,100.06-8.82,70-19.8,108.9-6.1,143.83,6.43,16.39,16,26,23.19,31.64"/><path class="cls-9" d="M1120.37,1287.22c-30.79,69-61.83,128.95-84.9,171.58C970.42,1579,923,1646.46,923.92,1705c.42,27.45,11.33,43.08,20.67,52.07"/><path class="cls-9" d="M1200.78,1747.17c-2-82.62-1-158,.3-212.52,3.7-153.68,12.62-249.22-6-296.11-8.73-22-20.4-25.41-29-24.73"/><path class="cls-9" d="M1731,1326.53c6.35-64.05,13.85-122.56,19.65-164.86,16.34-119.29,30.57-193.58,23.44-229.57-3.34-16.89-10.19-19.28-15.55-18.58"/></svg>